<svg width="246" height="208" viewBox="0 0 246 208" fill="none" xmlns="http://www.w3.org/2000/svg">
  <g clip-path="url(#clip0_0_1)">
    <path fill-rule="evenodd" clip-rule="evenodd" d="M28.4956 7.77379L23.5797 11.9774C22.9412 10.5304 21.9048 9.29776 20.593 8.42528C19.2812 7.55281 17.7488 7.07696 16.1771 7.054C10.7466 7.054 7.60265 9.127 7.60265 15.2596V23.8972C7.60265 26.2005 8.54584 32.2756 14.6908 32.2756C16.4514 32.2699 18.1818 31.8154 19.721 30.9546C21.2603 30.0937 22.5582 28.8545 23.4939 27.3522L28.7243 31.3543C27.2525 33.7148 25.2004 35.6523 22.7667 36.979C20.3331 38.3057 17.6005 38.9765 14.8337 38.9265C12.913 39.0456 10.9885 38.7639 9.18085 38.0989C7.3732 37.434 5.72135 36.4001 4.32878 35.0622C2.93621 33.7242 1.83292 32.111 1.08805 30.3235C0.343171 28.5361 -0.0272439 26.6129 5.13881e-06 24.6746C5.13881e-06 18.4555 0.200074 19.6072 0.200074 13.5321C0.330279 10.1798 1.69724 6.99699 4.0336 4.60615C6.36996 2.21532 9.50767 0.788455 12.833 0.604637C15.8553 0.0986941 18.9586 0.510289 21.7479 1.787C24.5371 3.06371 26.8861 5.14777 28.4956 7.77379Z" fill="#5E2E27"/>
    <path fill-rule="evenodd" clip-rule="evenodd" d="M68.281 1.26683H75.6835C75.6835 1.26683 75.6835 18.1964 75.6835 22.4C75.6835 26.6036 77.3127 32.3907 83.0004 32.3907C88.6881 32.3907 90.946 29.7707 90.946 22.6015V1.49716H98.3772V38.7249H91.8892V35.3563C88.7784 37.7847 84.9636 39.1196 81.0283 39.1568C77.5762 39.0366 74.3083 37.5586 71.9253 35.0397C69.5423 32.5207 68.234 29.1615 68.281 25.6823C68.281 17.8797 68.1952 1.26683 68.281 1.26683Z" fill="#5E2E27"/>
    <path fill-rule="evenodd" clip-rule="evenodd" d="M206.986 39.1568H199.527C199.527 39.1568 199.527 22.2273 199.527 18.0237C199.527 13.8201 197.898 8.03292 192.21 8.03292C186.522 8.03292 184.264 11.9774 184.264 18.7435V38.8977H176.976V1.69873H183.35V5.06737C183.35 5.06737 185.379 1.00773 193.41 1.26686C195.196 1.19116 196.978 1.48635 198.646 2.13408C200.314 2.78181 201.832 3.76823 203.105 5.032C204.379 6.29578 205.38 7.8099 206.048 9.48023C206.716 11.1506 207.035 12.9414 206.986 14.7414C206.986 22.5152 206.986 39.1568 206.986 39.1568Z" fill="#C7CD1D"/>
    <path fill-rule="evenodd" clip-rule="evenodd" d="M44.9871 0.547073H48.817C52.2182 0.569907 55.4719 1.94896 57.8663 4.38249C60.2606 6.81602 61.6005 10.1059 61.5929 13.5322V25.7975C61.5929 29.2237 60.2457 32.5105 57.8461 34.9386C55.4464 37.3668 52.1896 38.7385 48.7884 38.7538H44.9871C41.5882 38.731 38.3359 37.3568 35.9378 34.9303C33.5397 32.5038 32.1901 29.2214 32.1826 25.7975V13.5322C32.1901 10.1082 33.5397 6.82579 35.9378 4.3993C38.3359 1.9728 41.5882 0.598628 44.9871 0.57586V0.547073ZM45.5016 7.05401C43.6049 7.27182 41.8678 8.22772 40.661 9.71773C39.4542 11.2077 38.8733 13.1139 39.0422 15.0293V24.2427C38.8733 26.1582 39.4542 28.0643 40.661 29.5543C41.8678 31.0443 43.6049 32.0002 45.5016 32.218H48.3597C50.2564 32.0002 51.9935 31.0443 53.2003 29.5543C54.407 28.0643 54.988 26.1582 54.8191 24.2427V15.0293C54.988 13.1139 54.407 11.2077 53.2003 9.71773C51.9935 8.22772 50.2564 7.27182 48.3597 7.05401H45.5016Z" fill="#5E2E27"/>
    <path fill-rule="evenodd" clip-rule="evenodd" d="M105.465 1.49717V53.6679H113.497V36.3928C113.497 36.3928 115.154 39.0128 122.471 39.0128C125.904 38.9888 129.199 37.6472 131.684 35.2613C134.17 32.8754 135.658 29.6248 135.847 26.1717V13.5321C135.847 9.84679 132.732 1.32442 124.415 0.921334C116.098 0.518249 113.697 2.73522 112.668 4.8946V1.382H105.551L105.465 1.49717ZM119.327 7.08277H122.986C124.882 7.30059 126.619 8.25649 127.826 9.7465C129.033 11.2365 129.614 13.1426 129.445 15.0581V24.2715C129.614 26.187 129.033 28.093 127.826 29.5831C126.619 31.0731 124.882 32.029 122.986 32.2468H119.327C117.431 32.029 115.694 31.0731 114.487 29.5831C113.28 28.093 112.699 26.187 112.868 24.2715V15.0581C112.691 13.1379 113.268 11.2244 114.476 9.72808C115.684 8.23174 117.425 7.27173 119.327 7.05398V7.08277Z" fill="#E52330"/>
    <path fill-rule="evenodd" clip-rule="evenodd" d="M143.164 4.00204L146.194 9.0406C148.897 7.32107 152.115 6.61756 155.283 7.05397C156.294 7.03764 157.297 7.24045 158.224 7.64864C159.151 8.05683 159.98 8.66088 160.654 9.41988C161.329 10.1789 161.834 11.0751 162.135 12.0479C162.436 13.0206 162.527 14.0472 162.399 15.0581C159.826 13.4818 156.83 12.7476 153.825 12.9563C151.141 12.8747 148.498 13.6415 146.269 15.1493C144.039 16.657 142.334 18.83 141.392 21.3635C140.249 25.999 140.335 36.8247 149.538 38.6385C158.741 40.4524 163 35.3851 163 35.3851V38.8689H169.259V12.3229C169.259 -0.921348 150.995 -3.16711 143.05 4.03083L143.164 4.00204ZM154.339 18.9738H155.283C156.943 18.9738 158.535 19.6381 159.709 20.8206C160.883 22.0031 161.542 23.6069 161.542 25.2792V26.546C161.542 28.2183 160.883 29.8221 159.709 31.0046C158.535 32.1871 156.943 32.8514 155.283 32.8514H154.339C152.682 32.8438 151.094 32.1771 149.922 30.9962C148.75 29.8154 148.088 28.216 148.08 26.546V25.2792C148.08 23.6069 148.74 22.0031 149.913 20.8206C151.087 19.6381 152.679 18.9738 154.339 18.9738Z" fill="#FBBC43"/>
    <path fill-rule="evenodd" clip-rule="evenodd" d="M236.454 3.88692C237.578 2.5421 239.099 1.59361 240.795 1.17937C242.492 0.765127 244.275 0.906721 245.886 1.58357V7.16918C244.856 6.82217 243.755 6.7485 242.688 6.95528C241.622 7.16205 240.626 7.6423 239.798 8.34965C240.652 10.1481 241.101 12.1144 241.113 14.108C241.197 17.4689 239.958 20.727 237.666 23.1707C235.374 25.6144 232.216 27.0453 228.88 27.1507C224.593 27.1507 223.163 27.4386 219.334 32.909C218.733 34.0607 219.791 33.6 219.791 33.6C224.69 32.0012 229.91 31.6744 234.968 32.6499C237.695 33.1478 240.177 34.5534 242.017 36.6416C243.857 38.7298 244.947 41.3797 245.114 44.1666C245.285 50.2993 235.968 55.9137 235.968 55.9137L232.767 50.5296C235.825 47.4201 239.912 45.3471 236.025 41.0571C232.138 36.7671 222.563 39.0993 218.076 40.107C213.589 41.1147 212.588 36.1913 212.988 32.4772C213.355 30.9364 214.025 29.4853 214.958 28.2094C215.89 26.9336 217.067 25.8589 218.419 25.0489C216.647 23.8256 215.199 22.1835 214.202 20.2661C213.206 18.3488 212.691 16.2146 212.703 14.0504C212.618 10.6895 213.857 7.43144 216.149 4.9877C218.441 2.54396 221.6 1.11315 224.936 1.00775H228.908C231.634 1.02221 234.271 1.98891 236.368 3.74295L236.454 3.88692ZM226.479 7.1116C224.643 7.0252 222.847 7.67238 221.483 8.91244C220.118 10.1525 219.294 11.8852 219.191 13.7337V15.0581C219.294 16.9067 220.118 18.6393 221.483 19.8794C222.847 21.1195 224.643 21.7666 226.479 21.6802H227.594C229.43 21.7666 231.225 21.1195 232.59 19.8794C233.955 18.6393 234.778 16.9067 234.882 15.0581V13.7337C234.778 11.8852 233.955 10.1525 232.59 8.91244C231.225 7.67238 229.43 7.0252 227.594 7.1116H226.479Z" fill="#61BFE6"/>
  </g>
  <g clip-path="url(#clip1_0_1)">
    <path fill-rule="evenodd" clip-rule="evenodd" d="M28.4956 83.7738L23.5797 87.9774C22.9412 86.5304 21.9048 85.2978 20.593 84.4253C19.2812 83.5528 17.7488 83.077 16.1771 83.054C10.7466 83.054 7.60265 85.127 7.60265 91.2596V99.8972C7.60265 102.201 8.54584 108.276 14.6908 108.276C16.4514 108.27 18.1818 107.815 19.721 106.955C21.2603 106.094 22.5582 104.854 23.4939 103.352L28.7243 107.354C27.2525 109.715 25.2004 111.652 22.7667 112.979C20.3331 114.306 17.6005 114.976 14.8337 114.926C12.913 115.046 10.9885 114.764 9.18085 114.099C7.3732 113.434 5.72135 112.4 4.32878 111.062C2.93621 109.724 1.83292 108.111 1.08805 106.324C0.343171 104.536 -0.0272439 102.613 5.13881e-06 100.675C5.13881e-06 94.4555 0.200074 95.6072 0.200074 89.5321C0.330279 86.1798 1.69724 82.997 4.0336 80.6062C6.36996 78.2153 9.50767 76.7885 12.833 76.6046C15.8553 76.0987 18.9586 76.5103 21.7479 77.787C24.5371 79.0637 26.8861 81.1478 28.4956 83.7738Z" fill="#BEBEBE"/>
    <path fill-rule="evenodd" clip-rule="evenodd" d="M68.281 77.2668H75.6835C75.6835 77.2668 75.6835 94.1964 75.6835 98.4C75.6835 102.604 77.3127 108.391 83.0004 108.391C88.6881 108.391 90.946 105.771 90.946 98.6015V77.4972H98.3772V114.725H91.8892V111.356C88.7784 113.785 84.9636 115.12 81.0283 115.157C77.5762 115.037 74.3083 113.559 71.9253 111.04C69.5423 108.521 68.234 105.162 68.281 101.682C68.281 93.8797 68.1952 77.2668 68.281 77.2668Z" fill="#BEBEBE"/>
    <path fill-rule="evenodd" clip-rule="evenodd" d="M206.986 115.157H199.527C199.527 115.157 199.527 98.2273 199.527 94.0237C199.527 89.8201 197.898 84.0329 192.21 84.0329C186.522 84.0329 184.264 87.9774 184.264 94.7435V114.898H176.976V77.6987H183.35V81.0674C183.35 81.0674 185.379 77.0077 193.41 77.2669C195.196 77.1912 196.978 77.4864 198.646 78.1341C200.314 78.7818 201.832 79.7682 203.105 81.032C204.379 82.2958 205.38 83.8099 206.048 85.4802C206.716 87.1506 207.035 88.9414 206.986 90.7414C206.986 98.5152 206.986 115.157 206.986 115.157Z" fill="#BEBEBE"/>
    <path fill-rule="evenodd" clip-rule="evenodd" d="M44.9871 76.5471H48.817C52.2182 76.5699 55.4719 77.949 57.8663 80.3825C60.2606 82.816 61.6005 86.1059 61.5929 89.5322V101.797C61.5929 105.224 60.2457 108.511 57.8461 110.939C55.4464 113.367 52.1896 114.739 48.7884 114.754H44.9871C41.5882 114.731 38.3359 113.357 35.9378 110.93C33.5397 108.504 32.1901 105.221 32.1826 101.797V89.5322C32.1901 86.1082 33.5397 82.8258 35.9378 80.3993C38.3359 77.9728 41.5882 76.5986 44.9871 76.5759V76.5471ZM45.5016 83.054C43.6049 83.2718 41.8678 84.2277 40.661 85.7177C39.4542 87.2077 38.8733 89.1139 39.0422 91.0293V100.243C38.8733 102.158 39.4542 104.064 40.661 105.554C41.8678 107.044 43.6049 108 45.5016 108.218H48.3597C50.2564 108 51.9935 107.044 53.2003 105.554C54.407 104.064 54.988 102.158 54.8191 100.243V91.0293C54.988 89.1139 54.407 87.2077 53.2003 85.7177C51.9935 84.2277 50.2564 83.2718 48.3597 83.054H45.5016Z" fill="#BEBEBE"/>
    <path fill-rule="evenodd" clip-rule="evenodd" d="M105.465 77.4972V129.668H113.497V112.393C113.497 112.393 115.154 115.013 122.471 115.013C125.904 114.989 129.199 113.647 131.684 111.261C134.17 108.875 135.658 105.625 135.847 102.172V89.5321C135.847 85.8468 132.732 77.3244 124.415 76.9213C116.098 76.5182 113.697 78.7352 112.668 80.8946V77.382H105.551L105.465 77.4972ZM119.327 83.0828H122.986C124.882 83.3006 126.619 84.2565 127.826 85.7465C129.033 87.2365 129.614 89.1426 129.445 91.0581V100.271C129.614 102.187 129.033 104.093 127.826 105.583C126.619 107.073 124.882 108.029 122.986 108.247H119.327C117.431 108.029 115.694 107.073 114.487 105.583C113.28 104.093 112.699 102.187 112.868 100.271V91.0581C112.691 89.1379 113.268 87.2244 114.476 85.7281C115.684 84.2317 117.425 83.2717 119.327 83.054V83.0828Z" fill="#BEBEBE"/>
    <path fill-rule="evenodd" clip-rule="evenodd" d="M143.164 80.002L146.194 85.0406C148.897 83.3211 152.115 82.6176 155.283 83.054C156.294 83.0376 157.297 83.2404 158.224 83.6486C159.151 84.0568 159.98 84.6609 160.654 85.4199C161.329 86.1789 161.834 87.0751 162.135 88.0479C162.436 89.0206 162.527 90.0472 162.399 91.0581C159.826 89.4818 156.83 88.7476 153.825 88.9563C151.141 88.8747 148.498 89.6415 146.269 91.1493C144.039 92.657 142.334 94.83 141.392 97.3635C140.249 101.999 140.335 112.825 149.538 114.639C158.741 116.452 163 111.385 163 111.385V114.869H169.259V88.3229C169.259 75.0787 150.995 72.8329 143.05 80.0308L143.164 80.002ZM154.339 94.9738H155.283C156.943 94.9738 158.535 95.6381 159.709 96.8206C160.883 98.0031 161.542 99.6069 161.542 101.279V102.546C161.542 104.218 160.883 105.822 159.709 107.005C158.535 108.187 156.943 108.851 155.283 108.851H154.339C152.682 108.844 151.094 108.177 149.922 106.996C148.75 105.815 148.088 104.216 148.08 102.546V101.279C148.08 99.6069 148.74 98.0031 149.913 96.8206C151.087 95.6381 152.679 94.9738 154.339 94.9738Z" fill="#BEBEBE"/>
    <path fill-rule="evenodd" clip-rule="evenodd" d="M236.454 79.8869C237.578 78.5421 239.099 77.5936 240.795 77.1794C242.492 76.7651 244.275 76.9067 245.886 77.5836V83.1692C244.856 82.8222 243.755 82.7485 242.688 82.9553C241.622 83.1621 240.626 83.6423 239.798 84.3496C240.652 86.1481 241.101 88.1144 241.113 90.108C241.197 93.4689 239.958 96.727 237.666 99.1707C235.374 101.614 232.216 103.045 228.88 103.151C224.593 103.151 223.163 103.439 219.334 108.909C218.733 110.061 219.791 109.6 219.791 109.6C224.69 108.001 229.91 107.674 234.968 108.65C237.695 109.148 240.177 110.553 242.017 112.642C243.857 114.73 244.947 117.38 245.114 120.167C245.285 126.299 235.968 131.914 235.968 131.914L232.767 126.53C235.825 123.42 239.912 121.347 236.025 117.057C232.138 112.767 222.563 115.099 218.076 116.107C213.589 117.115 212.588 112.191 212.988 108.477C213.355 106.936 214.025 105.485 214.958 104.209C215.89 102.934 217.067 101.859 218.419 101.049C216.647 99.8256 215.199 98.1835 214.202 96.2661C213.206 94.3488 212.691 92.2146 212.703 90.0504C212.618 86.6895 213.857 83.4314 216.149 80.9877C218.441 78.544 221.6 77.1131 224.936 77.0077H228.908C231.634 77.0222 234.271 77.9889 236.368 79.743L236.454 79.8869ZM226.479 83.1116C224.643 83.0252 222.847 83.6724 221.483 84.9124C220.118 86.1525 219.294 87.8852 219.191 89.7337V91.0581C219.294 92.9067 220.118 94.6393 221.483 95.8794C222.847 97.1195 224.643 97.7666 226.479 97.6802H227.594C229.43 97.7666 231.225 97.1195 232.59 95.8794C233.955 94.6393 234.778 92.9067 234.882 91.0581V89.7337C234.778 87.8852 233.955 86.1525 232.59 84.9124C231.225 83.6724 229.43 83.0252 227.594 83.1116H226.479Z" fill="#BEBEBE"/>
  </g>
  <g clip-path="url(#clip2_0_1)">
    <path fill-rule="evenodd" clip-rule="evenodd" d="M28.4956 159.774L23.5797 163.977C22.9412 162.53 21.9048 161.298 20.593 160.425C19.2812 159.553 17.7488 159.077 16.1771 159.054C10.7466 159.054 7.60265 161.127 7.60265 167.26V175.897C7.60265 178.201 8.54584 184.276 14.6908 184.276C16.4514 184.27 18.1818 183.815 19.721 182.955C21.2603 182.094 22.5582 180.854 23.4939 179.352L28.7243 183.354C27.2525 185.715 25.2004 187.652 22.7667 188.979C20.3331 190.306 17.6005 190.976 14.8337 190.926C12.913 191.046 10.9885 190.764 9.18085 190.099C7.3732 189.434 5.72135 188.4 4.32878 187.062C2.93621 185.724 1.83292 184.111 1.08805 182.324C0.343171 180.536 -0.0272439 178.613 5.13881e-06 176.675C5.13881e-06 170.456 0.200074 171.607 0.200074 165.532C0.330279 162.18 1.69724 158.997 4.0336 156.606C6.36996 154.215 9.50767 152.788 12.833 152.605C15.8553 152.099 18.9586 152.51 21.7479 153.787C24.5371 155.064 26.8861 157.148 28.4956 159.774Z" fill="#443E3E"/>
    <path fill-rule="evenodd" clip-rule="evenodd" d="M68.281 153.267H75.6835C75.6835 153.267 75.6835 170.196 75.6835 174.4C75.6835 178.604 77.3127 184.391 83.0004 184.391C88.6881 184.391 90.946 181.771 90.946 174.602V153.497H98.3772V190.725H91.8892V187.356C88.7784 189.785 84.9636 191.12 81.0283 191.157C77.5762 191.037 74.3083 189.559 71.9253 187.04C69.5423 184.521 68.234 181.162 68.281 177.682C68.281 169.88 68.1952 153.267 68.281 153.267Z" fill="#443E3E"/>
    <path fill-rule="evenodd" clip-rule="evenodd" d="M206.986 191.157H199.527C199.527 191.157 199.527 174.227 199.527 170.024C199.527 165.82 197.898 160.033 192.21 160.033C186.522 160.033 184.264 163.977 184.264 170.743V190.898H176.976V153.699H183.35V157.067C183.35 157.067 185.379 153.008 193.41 153.267C195.196 153.191 196.978 153.486 198.646 154.134C200.314 154.782 201.832 155.768 203.105 157.032C204.379 158.296 205.38 159.81 206.048 161.48C206.716 163.151 207.035 164.941 206.986 166.741C206.986 174.515 206.986 191.157 206.986 191.157Z" fill="#443E3E"/>
    <path fill-rule="evenodd" clip-rule="evenodd" d="M44.9871 152.547H48.817C52.2182 152.57 55.4719 153.949 57.8663 156.382C60.2606 158.816 61.6005 162.106 61.5929 165.532V177.797C61.5929 181.224 60.2457 184.511 57.8461 186.939C55.4464 189.367 52.1896 190.739 48.7884 190.754H44.9871C41.5882 190.731 38.3359 189.357 35.9378 186.93C33.5397 184.504 32.1901 181.221 32.1826 177.797V165.532C32.1901 162.108 33.5397 158.826 35.9378 156.399C38.3359 153.973 41.5882 152.599 44.9871 152.576V152.547ZM45.5016 159.054C43.6049 159.272 41.8678 160.228 40.661 161.718C39.4542 163.208 38.8733 165.114 39.0422 167.029V176.243C38.8733 178.158 39.4542 180.064 40.661 181.554C41.8678 183.044 43.6049 184 45.5016 184.218H48.3597C50.2564 184 51.9935 183.044 53.2003 181.554C54.407 180.064 54.988 178.158 54.8191 176.243V167.029C54.988 165.114 54.407 163.208 53.2003 161.718C51.9935 160.228 50.2564 159.272 48.3597 159.054H45.5016Z" fill="#443E3E"/>
    <path fill-rule="evenodd" clip-rule="evenodd" d="M105.465 153.497V205.668H113.497V188.393C113.497 188.393 115.154 191.013 122.471 191.013C125.904 190.989 129.199 189.647 131.684 187.261C134.17 184.875 135.658 181.625 135.847 178.172V165.532C135.847 161.847 132.732 153.324 124.415 152.921C116.098 152.518 113.697 154.735 112.668 156.895V153.382H105.551L105.465 153.497ZM119.327 159.083H122.986C124.882 159.301 126.619 160.257 127.826 161.747C129.033 163.237 129.614 165.143 129.445 167.058V176.271C129.614 178.187 129.033 180.093 127.826 181.583C126.619 183.073 124.882 184.029 122.986 184.247H119.327C117.431 184.029 115.694 183.073 114.487 181.583C113.28 180.093 112.699 178.187 112.868 176.271V167.058C112.691 165.138 113.268 163.224 114.476 161.728C115.684 160.232 117.425 159.272 119.327 159.054V159.083Z" fill="#443E3E"/>
    <path fill-rule="evenodd" clip-rule="evenodd" d="M143.164 156.002L146.194 161.041C148.897 159.321 152.115 158.618 155.283 159.054C156.294 159.038 157.297 159.24 158.224 159.649C159.151 160.057 159.98 160.661 160.654 161.42C161.329 162.179 161.834 163.075 162.135 164.048C162.436 165.021 162.527 166.047 162.399 167.058C159.826 165.482 156.83 164.748 153.825 164.956C151.141 164.875 148.498 165.642 146.269 167.149C144.039 168.657 142.334 170.83 141.392 173.363C140.249 177.999 140.335 188.825 149.538 190.639C158.741 192.452 163 187.385 163 187.385V190.869H169.259V164.323C169.259 151.079 150.995 148.833 143.05 156.031L143.164 156.002ZM154.339 170.974H155.283C156.943 170.974 158.535 171.638 159.709 172.821C160.883 174.003 161.542 175.607 161.542 177.279V178.546C161.542 180.218 160.883 181.822 159.709 183.005C158.535 184.187 156.943 184.851 155.283 184.851H154.339C152.682 184.844 151.094 184.177 149.922 182.996C148.75 181.815 148.088 180.216 148.08 178.546V177.279C148.08 175.607 148.74 174.003 149.913 172.821C151.087 171.638 152.679 170.974 154.339 170.974Z" fill="#443E3E"/>
    <path fill-rule="evenodd" clip-rule="evenodd" d="M236.454 155.887C237.578 154.542 239.099 153.594 240.795 153.179C242.492 152.765 244.275 152.907 245.886 153.584V159.169C244.856 158.822 243.755 158.749 242.688 158.955C241.622 159.162 240.626 159.642 239.798 160.35C240.652 162.148 241.101 164.114 241.113 166.108C241.197 169.469 239.958 172.727 237.666 175.171C235.374 177.614 232.216 179.045 228.88 179.151C224.593 179.151 223.163 179.439 219.334 184.909C218.733 186.061 219.791 185.6 219.791 185.6C224.69 184.001 229.91 183.674 234.968 184.65C237.695 185.148 240.177 186.553 242.017 188.642C243.857 190.73 244.947 193.38 245.114 196.167C245.285 202.299 235.968 207.914 235.968 207.914L232.767 202.53C235.825 199.42 239.912 197.347 236.025 193.057C232.138 188.767 222.563 191.099 218.076 192.107C213.589 193.115 212.588 188.191 212.988 184.477C213.355 182.936 214.025 181.485 214.958 180.209C215.89 178.934 217.067 177.859 218.419 177.049C216.647 175.826 215.199 174.183 214.202 172.266C213.206 170.349 212.691 168.215 212.703 166.05C212.618 162.69 213.857 159.431 216.149 156.988C218.441 154.544 221.6 153.113 224.936 153.008H228.908C231.634 153.022 234.271 153.989 236.368 155.743L236.454 155.887ZM226.479 159.112C224.643 159.025 222.847 159.672 221.483 160.912C220.118 162.153 219.294 163.885 219.191 165.734V167.058C219.294 168.907 220.118 170.639 221.483 171.879C222.847 173.119 224.643 173.767 226.479 173.68H227.594C229.43 173.767 231.225 173.119 232.59 171.879C233.955 170.639 234.778 168.907 234.882 167.058V165.734C234.778 163.885 233.955 162.153 232.59 160.912C231.225 159.672 229.43 159.025 227.594 159.112H226.479Z" fill="#443E3E"/>
  </g>
  <defs>
    <clipPath id="clip0_0_1">
      <rect width="246" height="56" fill="white"/>
    </clipPath>
    <clipPath id="clip1_0_1">
      <rect width="246" height="56" fill="white" transform="translate(0 76)"/>
    </clipPath>
    <clipPath id="clip2_0_1">
      <rect width="246" height="56" fill="white" transform="translate(0 152)"/>
    </clipPath>
  </defs>
</svg>